<svg width="50" height="50" viewBox="0 0 50 50" fill="none" xmlns="http://www.w3.org/2000/svg">
<path fill-rule="evenodd" clip-rule="evenodd" d="M25 50C38.8071 50 50 38.8071 50 25C50 11.1929 38.8071 0 25 0C11.1929 0 0 11.1929 0 25C0 38.8071 11.1929 50 25 50ZM25 31.398C21.4665 31.398 18.602 28.5335 18.602 25C18.602 21.4665 21.4665 18.602 25 18.602C28.5335 18.602 31.398 21.4665 31.398 25C31.398 28.5335 28.5335 31.398 25 31.398ZM35.3732 14.165C37.5161 16.2166 39.0026 18.8576 39.6446 21.7541L34.9137 22.8026C34.4791 20.8419 33.4729 19.0541 32.0222 17.6652C30.5715 16.2763 28.7415 15.3489 26.7637 15C24.7859 14.6512 22.7491 14.8967 20.9108 15.7054C19.0725 16.5142 17.5153 17.8499 16.4362 19.5437C15.357 21.2375 14.8044 23.2132 14.8481 25.2211C14.8918 27.2289 15.5299 29.1787 16.6818 30.8239C17.8337 32.4691 19.4475 33.7358 21.3193 34.4637C23.191 35.1917 25.2366 35.3483 27.1974 34.9137L28.2459 39.6446C25.3495 40.2866 22.3278 40.0553 19.5628 38.9799C16.7978 37.9045 14.4139 36.0334 12.7123 33.6031C11.0108 31.1728 10.0681 28.2926 10.0036 25.3266C9.93897 22.3605 10.7554 19.442 12.3495 16.9399C13.9436 14.4379 16.2439 12.4648 18.9594 11.2701C21.6749 10.0753 24.6838 9.7127 27.6054 10.228C30.527 10.7433 33.2302 12.1134 35.3732 14.165Z" fill="#FC3C3C"/>
</svg>
